<svg viewBox="0 0 20 20" xmlns="http://www.w3.org/2000/svg" xmlns:xlink="http://www.w3.org/1999/xlink" width="20.000000" height="20.000000" fill="none" customFrame="#000000">
	<rect id="Delete" width="20.000000" height="20.000000" x="0.000000" y="0.000000" />
	<path id="Icon" d="M9.99999 1.66663C8.31245 1.66663 6.94443 3.03464 6.94443 4.72218L3.61117 4.72218C3.15093 4.72218 2.77783 5.09528 2.77783 5.55551C2.77783 6.01575 3.15093 6.38885 3.61117 6.38885L4.44456 6.38885L4.44443 12.4443C4.44439 14.3112 4.44437 15.2446 4.80768 15.9577C5.12726 16.5849 5.6372 17.0948 6.26442 17.4144C6.97748 17.7777 7.91092 17.7777 9.77782 17.7777L10.222 17.7777C12.0888 17.7777 13.0222 17.7777 13.7353 17.4144C14.3625 17.0949 14.8724 16.5849 15.192 15.9577C15.5553 15.2447 15.5553 14.3113 15.5554 12.4445L15.5555 6.38885L16.3889 6.38885C16.8492 6.38885 17.2223 6.01575 17.2223 5.55551C17.2223 5.09528 16.8492 4.72218 16.3889 4.72218L13.0555 4.72218C13.0555 3.03464 11.6875 1.66663 9.99999 1.66663ZM9.99999 3.33329C9.23292 3.33329 8.6111 3.95512 8.6111 4.72218L11.3889 4.72218C11.3889 3.95512 10.767 3.33329 9.99999 3.33329ZM13.8888 6.38885L6.11124 6.38885L6.11111 12.4443C6.1111 13.4053 6.11238 14.0257 6.15095 14.498C6.18794 14.9508 6.25073 15.1186 6.29272 15.201C6.45251 15.5146 6.70748 15.7696 7.02109 15.9294C7.1035 15.9714 7.27137 16.0342 7.72415 16.0712C8.19639 16.1098 8.81687 16.1111 9.77782 16.1111L10.222 16.1111C11.1829 16.1111 11.8034 16.1098 12.2756 16.0712C12.7284 16.0342 12.8962 15.9714 12.9786 15.9294C13.2922 15.7696 13.5472 15.5147 13.707 15.2011C13.749 15.1187 13.8118 14.9508 13.8488 14.498C13.8874 14.0258 13.8887 13.4054 13.8887 12.4445L13.8888 6.38885ZM9.16672 8.88885C9.16672 8.42861 8.79362 8.05551 8.33339 8.05551C7.87315 8.05551 7.50005 8.42861 7.50005 8.88885L7.50005 13.6111C7.50005 14.0713 7.87315 14.4444 8.33339 14.4444C8.79362 14.4444 9.16672 14.0713 9.16672 13.6111L9.16672 8.88885ZM11.6667 8.05551C12.127 8.05551 12.5001 8.42861 12.5001 8.88885L12.5001 13.6111C12.5001 14.0713 12.127 14.4444 11.6667 14.4444C11.2065 14.4444 10.8334 14.0713 10.8334 13.6111L10.8334 8.88885C10.8334 8.42861 11.2065 8.05551 11.6667 8.05551Z" fill="rgb(74,74,74)" fill-rule="evenodd" />
</svg>
