<svg viewBox="0 0 132 44" xmlns="http://www.w3.org/2000/svg" xmlns:xlink="http://www.w3.org/1999/xlink" width="132.000000" height="44.000000" fill="none" customFrame="#000000">
	<defs>
		<clipPath id="clipPath_0">
			<rect width="20.000000" height="20.000000" x="53.000000" y="12.000000" fill="rgb(255,255,255)" />
		</clipPath>
	</defs>
	<rect id="↪️ Cell 10" width="132.000000" height="44.000000" x="0.000000" y="0.000000" fill="rgb(255,255,255)" />
	<path d="M0 0L132 0L132 44L0 44L0 0ZM0 0.5L132 0.5L132 43.5L0 43.5L0 0.5ZM0 0Z" fill="rgb(227,227,227)" fill-rule="evenodd" />
	<g id="Edit" customFrame="url(#clipPath_0)">
		<rect id="Edit" width="20.000000" height="20.000000" x="53.000000" y="12.000000" />
		<path id="Icon" d="M68.6553 16.3443C67.603 15.292 65.8969 15.292 64.8446 16.3443L64.2461 16.9428L64.2374 16.9341L63.1767 17.9947L63.1855 18.0035L57.3054 23.8837C56.7897 24.3995 56.5 25.0989 56.5 25.8283L56.5 27.7498C56.5 27.9488 56.579 28.1395 56.7197 28.2802C56.8603 28.4208 57.0511 28.4998 57.25 28.4998L59.1716 28.4998C59.9009 28.4998 60.6004 28.2101 61.1161 27.6944L68.6554 20.1549C69.7076 19.1026 69.7076 17.3965 68.6553 16.3443ZM64.2462 19.0641L58.3661 24.9444C58.1317 25.1788 58 25.4967 58 25.8283L58 26.9998L59.1716 26.9998C59.5031 26.9998 59.821 26.8681 60.0555 26.6337L65.9355 20.7535L64.2462 19.0641ZM66.9961 19.6928L67.5947 19.0942C68.0612 18.6277 68.0612 17.8714 67.5947 17.4049C67.1282 16.9384 66.3718 16.9384 65.9053 17.4049L65.3068 18.0035L66.9961 19.6928Z" fill="rgb(74,74,74)" fill-rule="evenodd" />
	</g>
</svg>
